<mxfile host="Electron" agent="Mozilla/5.0 (Windows NT 10.0; Win64; x64) AppleWebKit/537.36 (KHTML, like Gecko) draw.io/25.0.2 Chrome/128.0.6613.186 Electron/32.2.5 Safari/537.36" version="25.0.2">
  <diagram name="Page-1" id="E_IGWqvpDnxncTXSa72u">
    <mxGraphModel dx="2219" dy="1071" grid="1" gridSize="10" guides="1" tooltips="1" connect="1" arrows="1" fold="1" page="1" pageScale="1" pageWidth="3000" pageHeight="1654" math="1" shadow="0">
      <root>
        <mxCell id="0" />
        <mxCell id="1" parent="0" />
        <mxCell id="8y5ZRWcZvUS6n-HQax2u-1" value="" style="group" parent="1" vertex="1" connectable="0">
          <mxGeometry x="20" y="20" width="1440" height="590" as="geometry" />
        </mxCell>
        <mxCell id="ZxauiuDKG2g1dHI-4sZQ-1" value="" style="rounded=1;whiteSpace=wrap;html=1;dashed=1;strokeWidth=3;arcSize=5;fillStyle=cross-hatch;fillColor=#d8e5d7;strokeColor=none;sketch=1;curveFitting=1;jiggle=2;dashPattern=8 8;fontColor=#000000;" parent="8y5ZRWcZvUS6n-HQax2u-1" vertex="1">
          <mxGeometry width="1440" height="590" as="geometry" />
        </mxCell>
        <mxCell id="ZxauiuDKG2g1dHI-4sZQ-2" value="Midterm" style="text;html=1;align=center;verticalAlign=middle;whiteSpace=wrap;rounded=0;fontFamily=Marhey;fontStyle=0;fontSource=https%3A%2F%2Ffonts.googleapis.com%2Fcss%3Ffamily%3DMarhey;fontSize=52;fontColor=#f8932f;" parent="8y5ZRWcZvUS6n-HQax2u-1" vertex="1">
          <mxGeometry x="630.0000000000001" y="10" width="257.14" height="90" as="geometry" />
        </mxCell>
        <mxCell id="ZxauiuDKG2g1dHI-4sZQ-5" value="1" style="text;html=1;align=center;verticalAlign=middle;whiteSpace=wrap;rounded=0;fontFamily=Marhey;fontStyle=0;fontSource=https%3A%2F%2Ffonts.googleapis.com%2Fcss%3Ffamily%3DMarhey;fontSize=72;fontColor=#0066CC;" parent="8y5ZRWcZvUS6n-HQax2u-1" vertex="1">
          <mxGeometry x="552.86" y="20" width="77.14" height="70" as="geometry" />
        </mxCell>
        <mxCell id="ZxauiuDKG2g1dHI-4sZQ-7" value="The sampling frequency must be at least twice the highest frequency ( `f_{max}` ) in a signal" style="rounded=1;whiteSpace=wrap;html=1;hachureGap=4;fontFamily=Mali;strokeWidth=1;fillColor=#ffcccc;strokeColor=none;fontSize=16;fontStyle=1;labelBorderColor=none;textShadow=0;labelBackgroundColor=none;align=left;spacing=7;verticalAlign=middle;sketch=1;jiggle=2;curveFitting=1;fontColor=default;fillStyle=zigzag;fontSource=https%3A%2F%2Ffonts.googleapis.com%2Fcss%3Ffamily%3DMali;dashed=1;dashPattern=12 12;" parent="8y5ZRWcZvUS6n-HQax2u-1" vertex="1">
          <mxGeometry x="360" y="100" width="720" height="40" as="geometry" />
        </mxCell>
        <mxCell id="SFYe_fyoSfHcq4pTkBsj-1" value="&lt;font color=&quot;#ff6666&quot;&gt;Sampling Rate (Sampling Frequency)&lt;/font&gt;&lt;div&gt;&lt;span&gt;&lt;font color=&quot;#3333ff&quot;&gt;&amp;nbsp;&lt;/font&gt;&lt;/span&gt;&lt;/div&gt;&lt;div&gt;&lt;font color=&quot;#3333ff&quot;&gt;2 `times` `f_{max}`&amp;nbsp; &amp;nbsp;or&amp;nbsp; &amp;nbsp;&lt;span style=&quot;background-color: initial;&quot;&gt;`frac{1}{&quot;Sampling Interval&quot;}`&lt;/span&gt;&lt;/font&gt;&lt;/div&gt;" style="rounded=1;whiteSpace=wrap;html=1;strokeWidth=1;fillColor=#dae8fc;strokeColor=default;fontFamily=Marhey;fontSize=23;sketch=1;hachureGap=4;jiggle=2;curveFitting=1;fontStyle=0;arcSize=12;dashed=1;dashPattern=12 12;verticalAlign=middle;fontSource=https%3A%2F%2Ffonts.googleapis.com%2Fcss%3Ffamily%3DMarhey;" parent="8y5ZRWcZvUS6n-HQax2u-1" vertex="1">
          <mxGeometry x="30" y="170" width="470" height="230" as="geometry" />
        </mxCell>
        <mxCell id="5ZsnYNtfs1G_fFzwfz3q-13" value="&lt;font color=&quot;#009900&quot;&gt;Audio File Size&lt;/font&gt;&lt;div&gt;&lt;span&gt;&lt;font color=&quot;#3333ff&quot;&gt;&amp;nbsp;&lt;/font&gt;&lt;/span&gt;&lt;/div&gt;&lt;div&gt;&lt;font color=&quot;#ff3399&quot;&gt;Time (Seconds) `times` Sample Rate (SF) `times` Sample Size (bps) `times` Channel&lt;/font&gt;&lt;/div&gt;" style="rounded=1;whiteSpace=wrap;html=1;strokeWidth=1;fillColor=#ffe6cc;strokeColor=default;fontFamily=Marhey;fontSize=23;sketch=1;hachureGap=4;jiggle=2;curveFitting=1;fontStyle=0;arcSize=12;dashed=1;dashPattern=12 12;verticalAlign=middle;fontSource=https%3A%2F%2Ffonts.googleapis.com%2Fcss%3Ffamily%3DMarhey;" parent="8y5ZRWcZvUS6n-HQax2u-1" vertex="1">
          <mxGeometry x="305" y="430" width="830" height="130" as="geometry" />
        </mxCell>
        <mxCell id="5ZsnYNtfs1G_fFzwfz3q-1" value="Constants" style="rounded=1;whiteSpace=wrap;html=1;strokeWidth=1;fillColor=#e1d5e7;strokeColor=default;fontFamily=Mali;fontSize=27;sketch=1;hachureGap=4;jiggle=2;curveFitting=1;fontSource=https%3A%2F%2Ffonts.googleapis.com%2Fcss%3Ffamily%3DMali;fontStyle=1;arcSize=12;dashed=1;dashPattern=12 12;verticalAlign=top;spacing=5;" parent="8y5ZRWcZvUS6n-HQax2u-1" vertex="1">
          <mxGeometry x="530" y="170" width="890" height="230" as="geometry" />
        </mxCell>
        <mxCell id="5ZsnYNtfs1G_fFzwfz3q-2" value="1- Audio &amp;amp; Music" style="text;html=1;align=center;verticalAlign=middle;whiteSpace=wrap;rounded=0;fontFamily=Marhey;fontStyle=1;fontSize=21;fontColor=#99004D;fontSource=https%3A%2F%2Ffonts.googleapis.com%2Fcss%3Ffamily%3DMarhey;" parent="8y5ZRWcZvUS6n-HQax2u-1" vertex="1">
          <mxGeometry x="660" y="210" width="183" height="28.57" as="geometry" />
        </mxCell>
        <mxCell id="5ZsnYNtfs1G_fFzwfz3q-3" value="`f_{max} = 22.05&amp;nbsp; KHz`" style="text;html=1;align=center;verticalAlign=middle;whiteSpace=wrap;rounded=0;fontFamily=Comic Sans MS;fontStyle=0;fontSize=18;fontColor=#000000;" parent="8y5ZRWcZvUS6n-HQax2u-1" vertex="1">
          <mxGeometry x="663" y="260" width="180" height="29.29" as="geometry" />
        </mxCell>
        <mxCell id="5ZsnYNtfs1G_fFzwfz3q-4" value="`&quot;SF&quot; = 2 times f_{max} = 44.1&amp;nbsp; KHz`" style="text;html=1;align=center;verticalAlign=middle;whiteSpace=wrap;rounded=0;fontFamily=Comic Sans MS;fontStyle=0;fontSize=18;fontColor=#000000;" parent="8y5ZRWcZvUS6n-HQax2u-1" vertex="1">
          <mxGeometry x="593" y="302.29" width="250" height="29.29" as="geometry" />
        </mxCell>
        <mxCell id="5ZsnYNtfs1G_fFzwfz3q-5" value="Sample Size (Bits per Sample) = Q" style="text;html=1;align=center;verticalAlign=middle;whiteSpace=wrap;rounded=0;fontFamily=Comic Sans MS;fontStyle=0;fontSize=18;fontColor=#000000;" parent="8y5ZRWcZvUS6n-HQax2u-1" vertex="1">
          <mxGeometry x="550" y="344.64000000000004" width="293" height="29.29" as="geometry" />
        </mxCell>
        <mxCell id="5ZsnYNtfs1G_fFzwfz3q-6" value="2- Channels" style="text;html=1;align=center;verticalAlign=middle;whiteSpace=wrap;rounded=0;fontFamily=Marhey;fontStyle=1;fontSize=21;fontColor=#99004D;fontSource=https%3A%2F%2Ffonts.googleapis.com%2Fcss%3Ffamily%3DMarhey;" parent="8y5ZRWcZvUS6n-HQax2u-1" vertex="1">
          <mxGeometry x="895" y="230" width="160" height="28.57" as="geometry" />
        </mxCell>
        <mxCell id="5ZsnYNtfs1G_fFzwfz3q-7" value="Mono = 1 Channel" style="text;html=1;align=center;verticalAlign=middle;whiteSpace=wrap;rounded=0;fontFamily=Comic Sans MS;fontStyle=0;fontSize=18;fontColor=#000000;" parent="8y5ZRWcZvUS6n-HQax2u-1" vertex="1">
          <mxGeometry x="885" y="277.11" width="180" height="29.29" as="geometry" />
        </mxCell>
        <mxCell id="5ZsnYNtfs1G_fFzwfz3q-8" value="Stereo = 2 Channel" style="text;html=1;align=center;verticalAlign=middle;whiteSpace=wrap;rounded=0;fontFamily=Comic Sans MS;fontStyle=0;fontSize=18;fontColor=#000000;" parent="8y5ZRWcZvUS6n-HQax2u-1" vertex="1">
          <mxGeometry x="885" y="327.46000000000004" width="180" height="29.29" as="geometry" />
        </mxCell>
        <mxCell id="5ZsnYNtfs1G_fFzwfz3q-9" value="3- Speech" style="text;html=1;align=center;verticalAlign=middle;whiteSpace=wrap;rounded=0;fontFamily=Marhey;fontStyle=1;fontSize=21;fontColor=#99004D;fontSource=https%3A%2F%2Ffonts.googleapis.com%2Fcss%3Ffamily%3DMarhey;" parent="8y5ZRWcZvUS6n-HQax2u-1" vertex="1">
          <mxGeometry x="1106" y="210" width="114" height="28.57" as="geometry" />
        </mxCell>
        <mxCell id="5ZsnYNtfs1G_fFzwfz3q-10" value="`f_{max} = 4&amp;nbsp; KHz`" style="text;html=1;align=center;verticalAlign=middle;whiteSpace=wrap;rounded=0;fontFamily=Comic Sans MS;fontStyle=0;fontSize=18;fontColor=#000000;" parent="8y5ZRWcZvUS6n-HQax2u-1" vertex="1">
          <mxGeometry x="1106" y="259.79" width="134" height="29.29" as="geometry" />
        </mxCell>
        <mxCell id="5ZsnYNtfs1G_fFzwfz3q-11" value="`&quot;SF&quot; = 2 times f_{max} = 8&amp;nbsp; KHz`" style="text;html=1;align=center;verticalAlign=middle;whiteSpace=wrap;rounded=0;fontFamily=Comic Sans MS;fontStyle=0;fontSize=18;fontColor=#000000;" parent="8y5ZRWcZvUS6n-HQax2u-1" vertex="1">
          <mxGeometry x="1106" y="302.08" width="224" height="29.29" as="geometry" />
        </mxCell>
        <mxCell id="5ZsnYNtfs1G_fFzwfz3q-12" value="Sample Size (Bits per Sample) = Q" style="text;html=1;align=center;verticalAlign=middle;whiteSpace=wrap;rounded=0;fontFamily=Comic Sans MS;fontStyle=0;fontSize=18;fontColor=#000000;" parent="8y5ZRWcZvUS6n-HQax2u-1" vertex="1">
          <mxGeometry x="1100" y="342.35" width="294" height="29.29" as="geometry" />
        </mxCell>
        <mxCell id="8y5ZRWcZvUS6n-HQax2u-3" value="" style="rounded=1;whiteSpace=wrap;html=1;dashed=1;strokeWidth=3;arcSize=5;fillStyle=cross-hatch;fillColor=#dae8fc;strokeColor=none;sketch=1;curveFitting=1;jiggle=2;dashPattern=8 8;" parent="1" vertex="1">
          <mxGeometry x="1510" y="20" width="1440" height="590" as="geometry" />
        </mxCell>
        <mxCell id="8y5ZRWcZvUS6n-HQax2u-4" value="YIQ Coloring Model" style="text;html=1;align=center;verticalAlign=middle;whiteSpace=wrap;rounded=0;fontFamily=Marhey;fontStyle=0;fontSource=https%3A%2F%2Ffonts.googleapis.com%2Fcss%3Ffamily%3DMarhey;fontSize=52;fontColor=#f8932f;" parent="1" vertex="1">
          <mxGeometry x="1987.14" y="30" width="542.86" height="90" as="geometry" />
        </mxCell>
        <mxCell id="8y5ZRWcZvUS6n-HQax2u-5" value="2" style="text;html=1;align=center;verticalAlign=middle;whiteSpace=wrap;rounded=0;fontFamily=Marhey;fontStyle=0;fontSource=https%3A%2F%2Ffonts.googleapis.com%2Fcss%3Ffamily%3DMarhey;fontSize=72;fontColor=#0066CC;" parent="1" vertex="1">
          <mxGeometry x="1930.0000000000002" y="40" width="77.14" height="70" as="geometry" />
        </mxCell>
        <mxCell id="8y5ZRWcZvUS6n-HQax2u-7" value="" style="rounded=1;whiteSpace=wrap;html=1;strokeWidth=1;fillColor=#d5e8d4;strokeColor=default;fontFamily=Cairo;fontSize=25;sketch=1;hachureGap=4;jiggle=2;curveFitting=1;fontStyle=4;arcSize=12;dashed=1;dashPattern=12 12;verticalAlign=middle;fontSource=https%3A%2F%2Ffonts.googleapis.com%2Fcss%3Ffamily%3DCairo;container=0;fontColor=#000000;" parent="1" vertex="1">
          <mxGeometry x="1995" y="150" width="615" height="230" as="geometry">
            <mxRectangle x="1995" y="150" width="50" height="40" as="alternateBounds" />
          </mxGeometry>
        </mxCell>
        <mxCell id="8y5ZRWcZvUS6n-HQax2u-8" value="&lt;font color=&quot;#009900&quot;&gt;Audio File Size&lt;/font&gt;&lt;div&gt;&lt;span&gt;&lt;font color=&quot;#3333ff&quot;&gt;&amp;nbsp;&lt;/font&gt;&lt;/span&gt;&lt;/div&gt;&lt;div&gt;&lt;font color=&quot;#ff3399&quot;&gt;Time (Seconds) `times` Sample Rate (SF) `times` Sample Size (bps) `times` Channel&lt;/font&gt;&lt;/div&gt;" style="rounded=1;whiteSpace=wrap;html=1;strokeWidth=1;fillColor=#ffe6cc;strokeColor=default;fontFamily=Marhey;fontSize=23;sketch=1;hachureGap=4;jiggle=2;curveFitting=1;fontStyle=0;arcSize=12;dashed=1;dashPattern=12 12;verticalAlign=middle;fontSource=https%3A%2F%2Ffonts.googleapis.com%2Fcss%3Ffamily%3DMarhey;" parent="1" vertex="1">
          <mxGeometry x="1815" y="450" width="830" height="130" as="geometry" />
        </mxCell>
        <mxCell id="1im5TisWD3s6IRSmnYU2-1" value="\begin{bmatrix} 0.299 &amp;amp; 0.587 &amp;amp; 0.114 \\ 0.596 &amp;amp; -0.275 &amp;amp; -0.321 \\ 0.212 &amp;amp; -0.528 &amp;amp; 0.311 \end{bmatrix}" style="text;align=center;verticalAlign=middle;whiteSpace=wrap;rounded=0;fontFamily=Architects Daughter;fontStyle=1;fontSource=https%3A%2F%2Ffonts.googleapis.com%2Fcss%3Ffamily%3DArchitects%2BDaughter;fontColor=#006600;html=1;fontSize=29;" vertex="1" parent="1">
          <mxGeometry x="2090" y="200" width="340" height="130" as="geometry" />
        </mxCell>
        <mxCell id="1im5TisWD3s6IRSmnYU2-3" value="&lt;span style=&quot;text-align: start;&quot;&gt;=&lt;/span&gt;" style="text;align=center;verticalAlign=middle;whiteSpace=wrap;rounded=0;fontFamily=Oxanium;fontStyle=1;fontSource=https%3A%2F%2Ffonts.googleapis.com%2Fcss%3Ffamily%3DOxanium;fontColor=#000000;html=1;fontSize=37;" vertex="1" parent="1">
          <mxGeometry x="2045" y="245" width="60" height="40" as="geometry" />
        </mxCell>
        <mxCell id="1im5TisWD3s6IRSmnYU2-2" value="&lt;span style=&quot;font-family: Cairo; font-size: 25px; font-weight: 400; text-align: start; text-decoration-line: underline;&quot;&gt;\begin{bmatrix} { y }&amp;nbsp; \\ { i } \\ { q } \end{bmatrix}&lt;/span&gt;" style="text;align=center;verticalAlign=middle;whiteSpace=wrap;rounded=0;fontFamily=Architects Daughter;fontStyle=1;fontSource=https%3A%2F%2Ffonts.googleapis.com%2Fcss%3Ffamily%3DArchitects%2BDaughter;fontColor=#99004D;html=1;fontSize=23;" vertex="1" parent="1">
          <mxGeometry x="1995" y="200" width="70" height="130" as="geometry" />
        </mxCell>
        <mxCell id="1im5TisWD3s6IRSmnYU2-4" value="&lt;span style=&quot;text-align: start;&quot;&gt;&lt;font face=&quot;Cairo&quot;&gt;\begin{bmatrix} {r}\\{g}\\{b} \end{bmatrix}&lt;/font&gt;&lt;/span&gt;" style="text;align=center;verticalAlign=middle;whiteSpace=wrap;rounded=0;fontFamily=Architects Daughter;fontStyle=1;fontSource=https%3A%2F%2Ffonts.googleapis.com%2Fcss%3Ffamily%3DArchitects%2BDaughter;fontColor=#99004D;html=1;fontSize=23;" vertex="1" parent="1">
          <mxGeometry x="2430" y="200" width="150" height="130" as="geometry" />
        </mxCell>
      </root>
    </mxGraphModel>
  </diagram>
</mxfile>
